<?xml version="1.0" encoding="UTF-8"?>
<svg id="_Слой_2" data-name="Слой 2" xmlns="http://www.w3.org/2000/svg" viewBox="0 0 344.25 344.23">
  <defs>
    <style>
      .cls-1 {
        fill: #fff;
      }
    </style>
  </defs>
  <g id="_Слой_1-2" data-name="Слой 1">
    <g>
      <path class="cls-1" d="m73.45,226.79c0,31.74.03,63.47-.02,95.21-.01,10.92-5.43,18.71-14.81,21.25-2.37.64-4.93.81-7.41.83-9.62.09-19.24.08-28.86.03-14.14-.07-22.32-8.22-22.33-22.39-.03-63.35-.03-126.7,0-190.04,0-14.29,8.33-22.51,22.61-22.52,9.25,0,18.49,0,27.74,0,15.01,0,23.06,8.07,23.07,23.17.02,31.49,0,62.97,0,94.46Zm-24.45,92.91v-185.93h-24.43v185.93h24.43Z"/>
      <path class="cls-1" d="m220.36,124.77c22.94-23.95,45.64-47.64,68.77-71.79-5.18-.3-9.76-.3-14.26-.88-5.03-.66-8.76-4.41-9.76-9.08-1.09-5.06.67-10.09,5.12-12.65,2.27-1.3,5.16-2.13,7.76-2.12,12.49.06,24.98.67,37.48.72,9.66.04,14.8,5.89,14.3,15.05-.7,12.59-.64,25.23-.91,37.85-.15,7.2-5.35,12.36-12.32,12.26-6.74-.1-11.68-5.33-11.72-12.41-.02-2.99,0-5.99,0-9.91-1.44,1.41-2.44,2.34-3.39,3.33-23.78,24.8-47.55,49.63-71.35,74.42-7.97,8.3-14.94,7.89-22.08-1.2-12.58-16.01-25.2-31.98-37.7-48.06-1.49-1.91-3.03-2.52-5.36-2.5-12.62.1-25.25-.04-37.87.1-4.2.04-7.71-1.1-11.08-3.64-31.92-24.04-63.92-47.99-95.88-71.98-6.15-4.62-7.47-11.66-3.32-17.41,4.1-5.68,11.61-6.55,17.89-1.85,30.4,22.74,60.73,45.57,91.19,68.24,1.91,1.42,4.67,2.36,7.06,2.4,13.24.23,26.49.21,39.74.06,5.22-.06,9.02,1.95,12.17,6.01,11.03,14.21,22.18,28.33,33.29,42.47.61.78,1.29,1.49,2.22,2.56Z"/>
      <path class="cls-1" d="m90.38,251.05c0-23.87-.01-47.75,0-71.62,0-12.32,8.61-20.88,21.01-20.91,10.5-.03,21-.04,31.5,0,12.15.05,20.86,8.81,20.88,21.18.06,31.5.02,62.99.02,94.49,0,15.87.01,31.75,0,47.62-.02,13.78-8.31,22.18-22.11,22.29-9.87.08-19.75.1-29.62,0-13.5-.14-21.67-8.42-21.67-21.81,0-23.75,0-47.5,0-71.24Zm24.24-68.35v136.92h24.56v-136.92h-24.56Z"/>
      <path class="cls-1" d="m270.8,251.13c0-23.62-.05-47.24.02-70.86.03-11.26,5.98-19.01,16.17-21.34,1.32-.3,2.72-.39,4.08-.39,10.87-.03,21.75-.06,32.62,0,10.95.05,19.28,7.66,20.34,18.49.15,1.49.2,2.99.2,4.49.01,46.49.06,92.98-.08,139.47-.01,3.9-.54,8.13-2.13,11.62-3.59,7.91-10.39,11.48-19.01,11.51-10.25.04-20.5.12-30.74-.02-13.22-.18-21.39-8.43-21.44-21.73-.09-23.74-.03-47.49-.03-71.23Zm24.48-68.41v136.89h24.43v-136.89h-24.43Z"/>
      <path class="cls-1" d="m253.87,276.13c0,15.74.02,31.47,0,47.21-.02,11.2-7.51,19.95-18.6,20.47-11.96.56-23.98.55-35.95.01-11.02-.5-18.79-9.27-18.82-20.39-.09-31.72-.09-63.45,0-95.17.04-11.39,8.3-20.06,19.65-20.39,11.36-.33,22.74-.33,34.09-.01,11.63.33,19.6,9,19.62,20.68.02,15.86,0,31.72,0,47.59Zm-48.88,43.43h24.64v-87.41h-24.64v87.41Z"/>
    </g>
  </g>
</svg>