<?xml version="1.0" encoding="UTF-8"?>
<svg id="_Слой_2" data-name="Слой 2" xmlns="http://www.w3.org/2000/svg" viewBox="0 0 511.01 512">
  <defs>
    <style>
      .cls-1 {
        fill: #fff;
      }
    </style>
  </defs>
  <g id="_Слой_1-2" data-name="Слой 1">
    <g>
      <path class="cls-1" d="m511.01,268c-2.53,5.35-4.37,11.2-7.75,15.95-6.97,9.81-17.14,14.8-29.08,14.84-53.53.18-107.07.25-160.6,0-20.41-.1-36.86-16.59-36.91-37.01-.2-74.96-.16-149.92-.01-224.88.03-17.03,11.66-31.37,28.04-35.84.93-.25,1.81-.7,2.71-1.06,57.89,0,115.77,0,173.66,0,4.71,2.24,9.67,4.08,14.09,6.81,8.6,5.32,12.63,14.04,15.86,23.19v238Zm-202.12-118.5c0,35.82,0,71.65,0,107.47,0,8.76.76,9.54,9.29,9.54,50.55,0,101.11,0,151.66,0,8.18,0,9.22-1.06,9.23-9.19,0-71.98,0-143.96,0-215.94,0-7.98-1.36-9.38-9.15-9.38-50.55,0-101.11,0-151.66,0-8.41,0-9.37.97-9.37,9.53,0,35.99,0,71.98,0,107.97Z"/>
      <path class="cls-1" d="m29.95,512c-1.32-.57-2.6-1.23-3.95-1.69C10.08,504.99.03,491.26.02,474.56c-.02-74.63-.03-149.26,0-223.88,0-20.41,15.91-37.32,36.31-37.43,53.86-.31,107.73-.32,161.6,0,20.51.12,36.33,17.05,36.47,37.96.15,22.82.04,45.64.04,68.46,0,50.31,0,100.61,0,150.92,0,21.81-9.26,34.36-30.06,40.79-.29.09-.51.4-.77.61H29.95Zm172.18-149.52c0-35.99,0-71.98,0-107.97,0-8.07-.92-9.02-8.81-9.02-50.72-.01-101.44,0-152.16,0-8.18,0-9.21,1.04-9.21,9.2,0,71.98,0,143.96,0,215.94,0,7.97,1.36,9.37,9.15,9.37,50.55,0,101.11,0,151.66,0,8.38,0,9.37-1,9.37-9.55,0-35.99,0-71.98,0-107.97Z"/>
      <path class="cls-1" d="m307.4,512c-7.22-2.49-14.28-5.2-19.78-10.9-7.02-7.28-10.92-15.96-10.97-26-.17-32.31-.27-64.63.01-96.94.18-20.4,16.56-36.88,36.95-36.96,53.53-.23,107.05-.19,160.58-.01,17.02.06,31.25,11.64,35.75,28.1.25.93.71,1.8,1.07,2.7v110c-.66,1.63-1.38,3.24-1.98,4.89-3.75,10.39-10.65,17.81-20.77,22.21-2.37,1.03-4.79,1.94-7.19,2.9h-173.66Zm86.35-31.99c25.61,0,51.21,0,76.82,0,6.85,0,8.5-1.65,8.5-8.53.01-29.82.01-59.64,0-89.46,0-7.18-1.29-8.51-8.39-8.51-51.21-.02-102.42-.02-153.64,0-6.99,0-8.14,1.15-8.14,8.17-.03,29.99-.02,59.98,0,89.96,0,7.1,1.33,8.37,8.53,8.37,25.44.01,50.88,0,76.32,0Z"/>
      <path class="cls-1" d="m203.61,0c5.6,2.74,11.73,4.75,16.68,8.39,9.37,6.89,13.97,16.93,14.05,28.5.23,32.31.29,64.62,0,96.92-.19,20.44-16.5,36.88-36.93,36.98-53.52.25-107.04.25-160.56,0C15.99,170.7.04,153.86.02,132.85c-.03-31.31-.02-62.62,0-93.93C.02,19.84,10.05,6.45,28.36.98,28.94.81,29.42.33,29.95,0,87.83,0,145.72,0,203.61,0Zm-86.31,138.51c25.44,0,50.88.01,76.32,0,7.39,0,8.49-1.08,8.49-8.33.02-29.82.02-59.64,0-89.46,0-7.5-1.23-8.71-8.69-8.71-50.88,0-101.76,0-152.64,0-7.27,0-8.84,1.53-8.84,8.68,0,29.65,0,59.31,0,88.96,0,7.71,1.16,8.86,9.04,8.87,25.44.01,50.88,0,76.32,0Z"/>
    </g>
  </g>
</svg>