<?xml version="1.0" encoding="UTF-8"?>
<svg id="_Слой_2" data-name="Слой 2" xmlns="http://www.w3.org/2000/svg" viewBox="0 0 609.66 610.18">
  <defs>
    <style>
      .cls-1 {
        fill: #8e44ad;
        stroke: #9b59b6;
        stroke-miterlimit: 10;
      }
    </style>
  </defs>
  <g id="_Слой_1-2" data-name="Слой 1">
    <g>
      <path class="cls-1" d="m109.54,250.79C109.42,113.4,222.11.39,359.11.5c137.38.11,250.05,112.81,250.05,250.11,0,137.07-112.91,249.11-250.88,248.94-137.48-.17-248.63-111.33-248.75-248.75ZM359.16,17.83c-128.57-.04-233.37,104.22-233.58,232.37-.21,128.76,105.34,234.24,234.06,233.9,128.14-.35,232.38-105.31,232.21-233.82-.18-129.28-103.41-232.42-232.68-232.45Z"/>
      <path class="cls-1" d="m89.47,433.94c28.82,29.68,56.38,58.07,82.84,85.32-24.07,25.11-47.99,53.62-75.66,77.83-23.57,20.62-60.33,14.58-80.66-8.39-21.18-23.92-20.74-58.79,1.98-82.52,23.12-24.15,47.01-47.56,71.51-72.24Z"/>
      <path class="cls-1" d="m104.75,418.47c8.33-7.42,17.27-15.37,26.44-23.54,12.07,14.42,24.12,30.8,38.25,45.14,13.86,14.08,29.83,26.09,44.58,38.76-8.13,7.5-16.82,15.51-24.22,22.34-26.79-26.05-55.53-54-85.05-82.71Z"/>
      <path class="cls-1" d="m240.65,182.61c-3.17-6.26-6.54-13.94-10.79-21.08-4.52-7.59-3.87-13.66,3.09-19.19,2.44-1.94,4.45-4.43,6.69-6.63,22.18-21.75,16.58-21.02,43.07-7.43,13.09,6.71,38.81-3.99,44.09-17.58,3.31-8.53,5.9-22.16,11.7-23.9,12.49-3.74,27.02-2.56,40.3-.6,4.03.6,7.77,9.99,9.83,15.98,8.71,25.29,30.73,35.1,53.94,21.94,12.31-6.98,21.16-6.26,29.52,4.99,2.47,3.33,5.53,6.41,8.87,8.87,10.8,7.96,11.53,16.47,4.99,28.27-13.84,24.96-5.01,46.58,22.25,54.49,12.72,3.69,18.73,9.69,16.73,23.15-.76,5.12-.68,10.53-.01,15.68,1.49,11.47-3.09,18.88-14.49,19.66-22.38,1.53-26.47,19.69-31.47,35.37-1.83,5.74,3.58,14.6,7.3,21.12,5.77,10.13,6.41,18.5-3.79,25.92-2.09,1.52-3.73,3.66-5.59,5.51-22.09,21.83-15.51,18.68-40.35,6.47-15.2-7.47-40.12,2.71-45.61,18.75-7.86,22.96-26.76,32.53-50.18,23.66-4.88-1.85-8.58-9.76-10.63-15.64-9.52-27.22-30.88-36.62-56.24-22.47-11.44,6.38-19.28,5.46-26.78-4.69-1.54-2.08-3.45-4.04-5.55-5.54-14.81-10.57-17.31-21.88-6.69-38.15,10.97-16.82-.77-40.94-20.26-47.97-7.46-2.69-19.07-6.58-20.15-11.74-2.7-12.88-1.76-27.03.61-40.15.71-3.95,10.72-6.82,16.89-9.04,13.13-4.73,28.42-23.66,28.72-38.03Zm120.25,4.5c-43.96,1.53-74.63,24.97-100.87,55.59-2.56,2.99-1.53,12.86,1.5,16.28,63.17,71.21,133.44,70.51,196.54-.98,2.74-3.1,3.57-12.11,1.21-14.85-26.33-30.53-57.09-53.8-98.38-56.04Z"/>
      <path class="cls-1" d="m437.95,249.81c-48.61,56.33-108.51,56.29-157.22.57,51.68-62.68,111.39-52.86,157.22-.57Zm-47.23.52c-.24-18.02-14.13-31.57-32.17-31.36-17.56.2-32.09,14.92-31.76,32.18.32,16.85,15.91,31.99,32.71,31.77,17.62-.23,31.45-14.67,31.22-32.59Z"/>
    </g>
    <circle class="cls-1" cx="359.35" cy="250.91" r="17.74"/>
  </g>
</svg>