<?xml version="1.0" encoding="UTF-8"?>
<svg id="_Слой_2" data-name="Слой 2" xmlns="http://www.w3.org/2000/svg" viewBox="0 0 337.28 384.01">
  <defs>
    <style>
      .cls-1 {
        fill: #fff;
      }
    </style>
  </defs>
  <g id="_Слой_2-2" data-name=" Слой 2">
    <g id="_Слой_1-2" data-name=" Слой 1-2">
      <g>
        <path class="cls-1" d="m171,384.01c-10.69-2.51-18.18-9.64-25.56-17.2-14.83-15.19-29.95-30.09-44.92-45.14-.96-.97-1.66-2.19-2.73-3.63-3.04,3.1-5.42,5.61-7.89,8.03-13.92,13.62-33.96,13.93-47.99.42-10.79-10.39-21.36-21.03-31.76-31.81-13.88-14.38-13.46-34.39.89-48.87,18.55-18.71,37.18-37.34,55.83-55.95,20.62-20.56,37.17-43.96,49.23-70.51,7.34-16.16,12.83-32.95,16.26-50.38.23-1.19-.04-2.71-.61-3.79-6.31-11.74-6.52-23.5.5-34.85,6.93-11.2,17.38-16.52,30.55-16.01,8.57.33,15.96,3.78,22.01,9.83,42.28,42.3,84.57,84.61,126.75,127.01,10.31,10.37,12.88,24.83,7.25,37.68-5.47,12.47-17.95,20.93-31.42,20.11-5.53-.34-10.93-2.88-16.39-4.4-1.13-.32-2.37-.99-3.41-.78-31.79,6.33-60.94,18.89-88.07,37.67,1.53,1.55,2.9,2.93,4.25,4.31,14.67,14.9,14.65,35.08-.09,50.01-2.19,2.22-4.57,4.24-7.35,6.81,8.71,8.54,17.27,16.37,25.19,24.82,15.98,17.05,9.9,44.85-11.59,53.98-2.49,1.06-5.13,1.76-7.7,2.63h-11.23Zm77.48-199.19c-32.45-32.49-64.76-64.84-97.1-97.23-10.14,38.23-28.25,72.7-53.9,102.65,16.26,16.32,32.27,32.38,48.49,48.66,29.95-25.85,64.39-43.86,102.51-54.08Zm-119.99,70.42c-15.85-15.94-31.5-31.68-47.27-47.53-.56.51-1.32,1.14-2.02,1.83-17.29,17.32-34.58,34.63-51.86,51.96-6.22,6.24-6.2,12.24.05,18.51,9.61,9.64,19.23,19.27,28.85,28.89,6.46,6.46,12.32,6.47,18.74.04,17.12-17.14,34.23-34.29,51.33-51.43.87-.87,1.7-1.77,2.17-2.27h0Zm21.38-205.09c.85,1.38,2.11,4.58,4.33,6.82,41.53,41.78,83.17,83.45,124.78,125.14.62.62,1.22,1.26,1.9,1.8,6.23,4.94,15.09,2.23,17.56-5.33,1.65-5.06-.37-8.92-3.87-12.42-41.55-41.59-83.07-83.2-124.6-124.8-.79-.79-1.57-1.63-2.49-2.26-3.69-2.51-7.59-2.99-11.63-.91-4.05,2.09-5.93,5.51-5.98,11.95h0Zm-36.12,252.83c18.26,18.27,36.67,36.75,55.16,55.16,2.58,2.57,5.87,3.79,9.58,3.12,4.25-.78,7.42-3.15,8.72-7.31,1.41-4.49.44-8.58-3.01-12.02-17.93-17.91-35.82-35.86-53.73-53.79-.41-.41-.94-.69-1.1-.81-5.3,5.32-10.39,10.42-15.61,15.65h-.01Zm47.49-47.49c-5.32,4.99-10.64,9.98-16.01,15.02.62.77.9,1.18,1.23,1.52,4.72,4.81,9.44,9.62,14.15,14.41,12.69-10.96,17.15-16.77.63-30.95Z"/>
        <path class="cls-1" d="m239.13.01c6.4,2.59,8.79,7.41,8.45,14.18-.31,6.22,0,12.47-.09,18.71-.09,7.32-4.67,12.14-11.33,12.1-6.57-.04-11.18-5.07-11.22-12.29-.03-5.99.28-11.99-.08-17.96-.42-6.87,1.98-11.82,8.27-14.75h6Z"/>
        <path class="cls-1" d="m282.7,67.63c-6.01-.3-9.52-2.21-11.61-6.44-2.17-4.4-1.73-8.77,1.5-12.18,7.71-8.14,15.62-16.11,23.76-23.82,4.44-4.2,11.42-3.53,15.49.81,3.94,4.2,4.22,11.02.12,15.3-7.59,7.91-15.35,15.68-23.28,23.24-1.84,1.75-4.69,2.45-5.99,3.1h0Z"/>
        <path class="cls-1" d="m314.9,90.01c3.86,0,7.73-.1,11.59.02,6.33.2,10.89,5.1,10.79,11.44-.09,6.08-4.76,10.9-10.9,11-7.6.11-15.2.09-22.8,0-6.29-.07-11.19-4.99-11.26-11.11-.07-6.16,4.71-11.16,11-11.34,3.86-.11,7.72-.02,11.59-.01h-.01Z"/>
        <path class="cls-1" d="m67.05,282.15c-5.99-.37-9.48-2.32-11.54-6.56-2.15-4.42-1.57-8.71,1.62-12.17,5.41-5.86,11.05-11.53,16.88-16.97,4.49-4.19,11.44-3.76,15.55.44,4.28,4.38,4.38,11.25-.04,15.85-5.27,5.49-10.58,10.95-16.18,16.08-1.97,1.81-4.87,2.6-6.29,3.32h0Z"/>
      </g>
    </g>
  </g>
</svg>